<svg xmlns="http://www.w3.org/2000/svg" height="512pt" viewBox="0 -12 512 511" width="512pt"><path d="m477.414062 325.652344c9.648438-26.101563 14.550782-53.53125 14.550782-81.6875 0-63.027344-24.542969-122.285156-69.113282-166.851563-44.566406-44.570312-103.824218-69.113281-166.851562-69.113281-52.386719 0-102.007812 16.824219-143.496094 48.652344l20.851563 27.179687c35.453125-27.199219 77.863281-41.574219 122.644531-41.574219 111.222656 0 201.707031 90.484376 201.707031 201.707032 0 22.316406-3.597656 44.085937-10.683593 64.902344l-18.796876-10.382813 1.496094 78.550781 67.28125-40.5625zm0 0" fill="#d7fc7e"/><path d="m256 445.671875c-111.222656 0-201.707031-90.484375-201.707031-201.707031 0-22.3125 3.597656-44.082032 10.679687-64.902344l18.800782 10.382812-1.5-78.550781-67.277344 40.5625 19.589844 10.820313c-9.652344 26.105468-14.550782 53.535156-14.550782 81.6875 0 63.03125 24.542969 122.285156 69.113282 166.855468 44.566406 44.566407 103.820312 69.113282 166.851562 69.113282 52.386719 0 102.007812-16.824219 143.496094-48.65625l-20.851563-27.179688c-35.453125 27.199219-77.863281 41.574219-122.644531 41.574219zm0 0" fill="#d7fc7e"/><path d="m330.1875 135.640625-50.457031-60.21875-7.65625 21c-5.332031-.574219-10.707031-.871094-16.074219-.871094-81.835938 0-148.414062 66.578125-148.414062 148.414063 0 30.113281 8.980468 59.117187 25.96875 83.878906l28.25-19.382812c-13.058594-19.03125-19.960938-41.332032-19.960938-64.496094 0-62.945313 51.210938-114.15625 114.15625-114.15625 1.289062 0 2.578125.039062 3.863281.082031l-7.054687 19.34375zm0 0" fill="#d7fc7e"/><path d="m350.195312 179.472656c13.058594 19.027344 19.960938 41.328125 19.960938 64.492188 0 62.945312-51.210938 114.15625-114.15625 114.15625-1.289062 0-2.574219-.039063-3.863281-.082032l7.054687-19.34375-77.378906 13.59375 50.453125 60.21875 7.660156-21c5.328125.574219 10.707031.871094 16.074219.871094 81.835938 0 148.414062-66.578125 148.414062-148.414062 0-30.113282-8.980468-59.117188-25.96875-83.878906zm0 0" fill="#d7fc7e"/><path d="m317.476562 279.457031v-70.984375l-61.476562-35.496094-61.476562 35.496094v70.984375l61.476562 35.496094zm0 0" fill="#57a4ff"/><path d="m293.328125 243.960938c0 9.574218-7.757813 17.335937-17.332031 17.335937-9.574219 0-17.335938-7.761719-17.335938-17.335937 0-9.574219 7.761719-17.332032 17.335938-17.332032 9.574218 0 17.332031 7.757813 17.332031 17.332032zm0 0" fill="#006df0"/><path d="m273.332031 243.960938c0 9.574218-7.757812 17.335937-17.332031 17.335937s-17.335938-7.761719-17.335938-17.335937c0-9.574219 7.761719-17.332032 17.335938-17.332032s17.332031 7.757813 17.332031 17.332032zm0 0" fill="#ffe477"/><g fill="#55e072"><path d="m142.5 56.652344c37.5-28.769532 81.648438-45.28125 128.480469-48.1875-4.964844-.308594-9.960938-.464844-14.980469-.464844-52.386719 0-102.007812 16.824219-143.496094 48.652344l20.851563 27.179687c6.359375-4.878906 12.941406-9.34375 19.722656-13.386719zm0 0"/><path d="m119.140625 410.816406c-44.566406-44.566406-69.109375-103.824218-69.109375-166.851562 0-28.152344 4.898438-55.585938 14.546875-81.6875l-19.589844-10.820313 37.628907-22.683593-.34375-17.878907-67.277344 40.5625 19.589844 10.820313c-9.648438 26.105468-14.550782 53.535156-14.550782 81.6875 0 63.03125 24.546875 122.285156 69.113282 166.855468 44.566406 44.566407 103.824218 69.113282 166.851562 69.113282 5.035156 0 10.039062-.15625 15.019531-.46875-57.398437-3.570313-110.859375-27.628906-151.878906-68.648438zm0 0"/><path d="m285.996094 95.550781c3.644531 0 7.300781.136719 10.941406.40625l-17.207031-20.535156-7.574219 20.769531c4.558594-.421875 9.171875-.640625 13.839844-.640625zm0 0"/><path d="m137.582031 243.964844c0-76.765625 58.582031-140.105469 133.390625-147.660156-4.96875-.5-9.976562-.753907-14.972656-.753907-81.835938 0-148.414062 66.578125-148.414062 148.414063 0 30.113281 8.980468 59.117187 25.96875 83.878906l21.191406-14.542969c-11.269532-21.269531-17.164063-44.9375-17.164063-69.335937zm0 0"/><path d="m211.808594 352.289062 45.332031-7.960937 2.054687-5.632813-77.382812 13.59375 50.457031 60.21875 7.65625-20.996093c1.707031.183593 3.417969.335937 5.132813.464843zm0 0"/></g><path d="m224.519531 279.457031v-70.984375l46.476563-26.835937-14.996094-8.660157-61.476562 35.496094v70.984375l61.476562 35.496094 14.996094-8.660156zm0 0" fill="#006df0"/><path d="m258.664062 243.960938c0-5.847657 2.894532-11.019532 7.335938-14.160157-2.828125-2-6.277344-3.171875-10-3.171875-9.574219 0-17.332031 7.757813-17.332031 17.332032 0 9.574218 7.757812 17.335937 17.332031 17.335937 3.722656 0 7.171875-1.175781 10-3.171875-4.441406-3.140625-7.335938-8.3125-7.335938-14.164062zm0 0" fill="#ffb655"/><path d="m486.605469 322.164062c8.535156-25.125 12.859375-51.398437 12.859375-78.199218 0-65.03125-25.324219-126.167969-71.308594-172.15625-45.988281-45.984375-107.125-71.308594-172.15625-71.308594-54.050781 0-105.25 17.359375-148.0625 50.203125l-5.949219 4.5625 29.980469 39.078125 5.949219-4.5625c34.132812-26.183594 74.964843-40.023438 118.082031-40.023438 107.085938 0 194.207031 87.121094 194.207031 194.207032 0 18.382812-2.546875 36.472656-7.582031 53.90625l-22.144531-12.230469 1.996093 104.523437 89.523438-53.976562zm-4.597657 14.59375-45.03125 27.152344-1.003906-52.582031 15.265625 8.433594c4.429688-13.011719 13.96875-38.398438 13.96875-75.796875 0-115.355469-93.851562-209.207032-209.207031-209.207032-43.933594 0-85.667969 13.34375-121.179688 38.664063l-11.730468-15.289063c38.910156-27.921874 84.699218-42.636718 132.910156-42.636718 61.023438 0 118.398438 23.765625 161.550781 66.917968 43.152344 43.152344 66.914063 100.527344 66.914063 161.550782 0 32.386718-6.046875 57.332031-16.320313 85.136718zm0 0"/><path d="m277.140625 60.648438-10.140625 27.792968c-90.246094-6.34375-166.914062 65.351563-166.914062 155.523438 0 31.636718 9.4375 62.105468 27.285156 88.121094l4.242187 6.183593 40.617188-27.871093-4.246094-6.183594c-12.195313-17.773438-18.640625-38.605469-18.640625-60.25 0-56.492188 44.144531-102.867188 99.75-106.4375l-7.785156 21.339844 102.964844-18.089844zm-21.140625 61.660156c-67.082031 0-121.65625 54.574218-121.65625 121.65625 0 22.167968 5.933594 43.59375 17.222656 62.425781l-15.90625 10.914063c-13.484375-22.0625-20.574218-47.261719-20.574218-73.339844 0-83.210938 72.292968-149.121094 156.183593-140.089844l5.835938.628906 5.21875-14.308594 33.773437 40.304688-51.796875 9.101562 6.148438-16.851562c-11.191407-.386719-12.296875-.441406-14.449219-.441406zm0 0"/><path d="m187.023438 259.460938v24.328124l68.976562 39.820313 68.976562-39.820313v-79.648437l-68.976562-39.820313-68.976562 39.820313v35.324219h15v-26.664063l53.976562-31.164062 53.976562 31.164062v62.328125l-53.976562 31.164063-53.976562-31.164063v-15.667968zm0 0"/><path d="m280.832031 243.960938c0-13.691407-11.140625-24.832032-24.832031-24.832032s-24.832031 11.140625-24.832031 24.832032c0 13.691406 11.140625 24.832031 24.832031 24.832031s24.832031-11.136719 24.832031-24.832031zm-34.667969 0c0-5.421876 4.414063-9.835938 9.835938-9.835938s9.835938 4.414062 9.835938 9.835938c0 5.421874-4.414063 9.835937-9.835938 9.835937s-9.835938-4.414063-9.835938-9.835937zm0 0"/><path d="m380.386719 149.660156-40.613281 27.867188 4.242187 6.1875c12.195313 17.773437 18.640625 38.609375 18.640625 60.25 0 56.492187-44.144531 102.867187-99.75 106.4375l7.78125-21.339844-102.960938 18.089844 67.132813 80.128906 10.140625-27.792969c3.679688.257813 7.359375.390625 11 .390625 37.691406 0 74.101562-13.6875 102.523438-38.546875l-9.875-11.289062c-25.6875 22.464843-58.589844 34.839843-92.648438 34.839843-8.667969 0-14.449219-.738281-21.105469-1.457031l-5.222656 14.3125-33.769531-40.308593 51.792968-9.101563-6.148437 16.863281c11.394531.378906 12.398437.429688 14.453125.429688 67.078125 0 121.65625-54.574219 121.65625-121.65625 0-22.167969-5.933594-43.59375-17.222656-62.421875l15.90625-10.917969c13.484375 22.066406 20.574218 47.265625 20.574218 73.339844 0 34.058594-12.371093 66.960937-34.832031 92.648437l11.289063 9.871094c24.851562-28.421875 38.539062-64.828125 38.539062-102.519531 0-31.632813-9.433594-62.101563-27.28125-88.117188zm0 0"/><path d="m374.078125 398.148438c-34.132813 26.183593-74.960937 40.023437-118.078125 40.023437-107.085938 0-194.207031-87.121094-194.207031-194.207031 0-18.382813 2.546875-36.472656 7.582031-53.90625l22.140625 12.230468-1.992187-104.523437-89.523438 53.976563 25.394531 14.023437c-8.535156 25.125-12.859375 51.398437-12.859375 78.199219 0 64.363281 24.882813 125.050781 70.066406 170.878906l10.679688-10.527344c-42.398438-43.007812-65.746094-99.957031-65.746094-160.351562 0-32.4375 6.070313-57.402344 16.320313-85.136719l-13.867188-7.65625 45.035157-27.152344 1.003906 52.582031-15.269532-8.433593c-4.070312 11.972656-13.964843 37.886719-13.964843 75.796875 0 115.359375 93.851562 209.207031 209.207031 209.207031 43.933594 0 85.667969-13.34375 121.179688-38.664063l11.730468 15.289063c-38.910156 27.917969-84.699218 42.636719-132.910156 42.636719-54.582031 0-107.339844-19.492188-148.558594-54.882813l-9.769531 11.378907c43.933594 37.722656 100.164063 58.5 158.328125 58.5 54.050781 0 105.25-17.359376 148.058594-50.203126l5.949218-4.5625-29.980468-39.078124zm0 0"/><path d="m256.613281 298.015625-7.5-12.988281 42.214844-24.371094 7.5 12.988281zm46.503907-40.550781h-15v-15h15zm0-24.996094h-15v-15h15zm0 0" fill="#fff"/>
<path xmlns="http://www.w3.org/2000/svg" d="m477.414062 325.652344c9.648438-26.101563 14.550782-53.53125 14.550782-81.6875 0-63.027344-24.542969-122.285156-69.113282-166.851563-44.566406-44.570312-103.824218-69.113281-166.851562-69.113281-52.386719 0-102.007812 16.824219-143.496094 48.652344l20.851563 27.179687c35.453125-27.199219 77.863281-41.574219 122.644531-41.574219 111.222656 0 201.707031 90.484376 201.707031 201.707032 0 22.316406-3.597656 44.085937-10.683593 64.902344l-18.796876-10.382813 1.496094 78.550781 67.28125-40.5625zm0 0" fill="#d7fc7e"/>
<path xmlns="http://www.w3.org/2000/svg" d="m256 445.671875c-111.222656 0-201.707031-90.484375-201.707031-201.707031 0-22.3125 3.597656-44.082032 10.679687-64.902344l18.800782 10.382812-1.5-78.550781-67.277344 40.5625 19.589844 10.820313c-9.652344 26.105468-14.550782 53.535156-14.550782 81.6875 0 63.03125 24.542969 122.285156 69.113282 166.855468 44.566406 44.566407 103.820312 69.113282 166.851562 69.113282 52.386719 0 102.007812-16.824219 143.496094-48.65625l-20.851563-27.179688c-35.453125 27.199219-77.863281 41.574219-122.644531 41.574219zm0 0" fill="#d7fc7e"/>
<path xmlns="http://www.w3.org/2000/svg" d="m330.1875 135.640625-50.457031-60.21875-7.65625 21c-5.332031-.574219-10.707031-.871094-16.074219-.871094-81.835938 0-148.414062 66.578125-148.414062 148.414063 0 30.113281 8.980468 59.117187 25.96875 83.878906l28.25-19.382812c-13.058594-19.03125-19.960938-41.332032-19.960938-64.496094 0-62.945313 51.210938-114.15625 114.15625-114.15625 1.289062 0 2.578125.039062 3.863281.082031l-7.054687 19.34375zm0 0" fill="#d7fc7e"/>
<path xmlns="http://www.w3.org/2000/svg" d="m350.195312 179.472656c13.058594 19.027344 19.960938 41.328125 19.960938 64.492188 0 62.945312-51.210938 114.15625-114.15625 114.15625-1.289062 0-2.574219-.039063-3.863281-.082032l7.054687-19.34375-77.378906 13.59375 50.453125 60.21875 7.660156-21c5.328125.574219 10.707031.871094 16.074219.871094 81.835938 0 148.414062-66.578125 148.414062-148.414062 0-30.113282-8.980468-59.117188-25.96875-83.878906zm0 0" fill="#d7fc7e"/>
<path xmlns="http://www.w3.org/2000/svg" d="m317.476562 279.457031v-70.984375l-61.476562-35.496094-61.476562 35.496094v70.984375l61.476562 35.496094zm0 0" fill="#57a4ff"/>
<path xmlns="http://www.w3.org/2000/svg" d="m293.328125 243.960938c0 9.574218-7.757813 17.335937-17.332031 17.335937-9.574219 0-17.335938-7.761719-17.335938-17.335937 0-9.574219 7.761719-17.332032 17.335938-17.332032 9.574218 0 17.332031 7.757813 17.332031 17.332032zm0 0" fill="#006df0"/>
<path xmlns="http://www.w3.org/2000/svg" d="m273.332031 243.960938c0 9.574218-7.757812 17.335937-17.332031 17.335937s-17.335938-7.761719-17.335938-17.335937c0-9.574219 7.761719-17.332032 17.335938-17.332032s17.332031 7.757813 17.332031 17.332032zm0 0" fill="#ffe477"/>
<g xmlns="http://www.w3.org/2000/svg" fill="#55e072"><path d="m142.5 56.652344c37.5-28.769532 81.648438-45.28125 128.480469-48.1875-4.964844-.308594-9.960938-.464844-14.980469-.464844-52.386719 0-102.007812 16.824219-143.496094 48.652344l20.851563 27.179687c6.359375-4.878906 12.941406-9.34375 19.722656-13.386719zm0 0"/><path d="m119.140625 410.816406c-44.566406-44.566406-69.109375-103.824218-69.109375-166.851562 0-28.152344 4.898438-55.585938 14.546875-81.6875l-19.589844-10.820313 37.628907-22.683593-.34375-17.878907-67.277344 40.5625 19.589844 10.820313c-9.648438 26.105468-14.550782 53.535156-14.550782 81.6875 0 63.03125 24.546875 122.285156 69.113282 166.855468 44.566406 44.566407 103.824218 69.113282 166.851562 69.113282 5.035156 0 10.039062-.15625 15.019531-.46875-57.398437-3.570313-110.859375-27.628906-151.878906-68.648438zm0 0"/><path d="m285.996094 95.550781c3.644531 0 7.300781.136719 10.941406.40625l-17.207031-20.535156-7.574219 20.769531c4.558594-.421875 9.171875-.640625 13.839844-.640625zm0 0"/><path d="m137.582031 243.964844c0-76.765625 58.582031-140.105469 133.390625-147.660156-4.96875-.5-9.976562-.753907-14.972656-.753907-81.835938 0-148.414062 66.578125-148.414062 148.414063 0 30.113281 8.980468 59.117187 25.96875 83.878906l21.191406-14.542969c-11.269532-21.269531-17.164063-44.9375-17.164063-69.335937zm0 0"/><path d="m211.808594 352.289062 45.332031-7.960937 2.054687-5.632813-77.382812 13.59375 50.457031 60.21875 7.65625-20.996093c1.707031.183593 3.417969.335937 5.132813.464843zm0 0"/></g>
<path xmlns="http://www.w3.org/2000/svg" d="m224.519531 279.457031v-70.984375l46.476563-26.835937-14.996094-8.660157-61.476562 35.496094v70.984375l61.476562 35.496094 14.996094-8.660156zm0 0" fill="#006df0"/>
<path xmlns="http://www.w3.org/2000/svg" d="m258.664062 243.960938c0-5.847657 2.894532-11.019532 7.335938-14.160157-2.828125-2-6.277344-3.171875-10-3.171875-9.574219 0-17.332031 7.757813-17.332031 17.332032 0 9.574218 7.757812 17.335937 17.332031 17.335937 3.722656 0 7.171875-1.175781 10-3.171875-4.441406-3.140625-7.335938-8.3125-7.335938-14.164062zm0 0" fill="#ffb655"/>
<path xmlns="http://www.w3.org/2000/svg" d="m486.605469 322.164062c8.535156-25.125 12.859375-51.398437 12.859375-78.199218 0-65.03125-25.324219-126.167969-71.308594-172.15625-45.988281-45.984375-107.125-71.308594-172.15625-71.308594-54.050781 0-105.25 17.359375-148.0625 50.203125l-5.949219 4.5625 29.980469 39.078125 5.949219-4.5625c34.132812-26.183594 74.964843-40.023438 118.082031-40.023438 107.085938 0 194.207031 87.121094 194.207031 194.207032 0 18.382812-2.546875 36.472656-7.582031 53.90625l-22.144531-12.230469 1.996093 104.523437 89.523438-53.976562zm-4.597657 14.59375-45.03125 27.152344-1.003906-52.582031 15.265625 8.433594c4.429688-13.011719 13.96875-38.398438 13.96875-75.796875 0-115.355469-93.851562-209.207032-209.207031-209.207032-43.933594 0-85.667969 13.34375-121.179688 38.664063l-11.730468-15.289063c38.910156-27.921874 84.699218-42.636718 132.910156-42.636718 61.023438 0 118.398438 23.765625 161.550781 66.917968 43.152344 43.152344 66.914063 100.527344 66.914063 161.550782 0 32.386718-6.046875 57.332031-16.320313 85.136718zm0 0"/>
<path xmlns="http://www.w3.org/2000/svg" d="m277.140625 60.648438-10.140625 27.792968c-90.246094-6.34375-166.914062 65.351563-166.914062 155.523438 0 31.636718 9.4375 62.105468 27.285156 88.121094l4.242187 6.183593 40.617188-27.871093-4.246094-6.183594c-12.195313-17.773438-18.640625-38.605469-18.640625-60.25 0-56.492188 44.144531-102.867188 99.75-106.4375l-7.785156 21.339844 102.964844-18.089844zm-21.140625 61.660156c-67.082031 0-121.65625 54.574218-121.65625 121.65625 0 22.167968 5.933594 43.59375 17.222656 62.425781l-15.90625 10.914063c-13.484375-22.0625-20.574218-47.261719-20.574218-73.339844 0-83.210938 72.292968-149.121094 156.183593-140.089844l5.835938.628906 5.21875-14.308594 33.773437 40.304688-51.796875 9.101562 6.148438-16.851562c-11.191407-.386719-12.296875-.441406-14.449219-.441406zm0 0"/>
<path xmlns="http://www.w3.org/2000/svg" d="m187.023438 259.460938v24.328124l68.976562 39.820313 68.976562-39.820313v-79.648437l-68.976562-39.820313-68.976562 39.820313v35.324219h15v-26.664063l53.976562-31.164062 53.976562 31.164062v62.328125l-53.976562 31.164063-53.976562-31.164063v-15.667968zm0 0"/>
<path xmlns="http://www.w3.org/2000/svg" d="m280.832031 243.960938c0-13.691407-11.140625-24.832032-24.832031-24.832032s-24.832031 11.140625-24.832031 24.832032c0 13.691406 11.140625 24.832031 24.832031 24.832031s24.832031-11.136719 24.832031-24.832031zm-34.667969 0c0-5.421876 4.414063-9.835938 9.835938-9.835938s9.835938 4.414062 9.835938 9.835938c0 5.421874-4.414063 9.835937-9.835938 9.835937s-9.835938-4.414063-9.835938-9.835937zm0 0"/>
<path xmlns="http://www.w3.org/2000/svg" d="m380.386719 149.660156-40.613281 27.867188 4.242187 6.1875c12.195313 17.773437 18.640625 38.609375 18.640625 60.25 0 56.492187-44.144531 102.867187-99.75 106.4375l7.78125-21.339844-102.960938 18.089844 67.132813 80.128906 10.140625-27.792969c3.679688.257813 7.359375.390625 11 .390625 37.691406 0 74.101562-13.6875 102.523438-38.546875l-9.875-11.289062c-25.6875 22.464843-58.589844 34.839843-92.648438 34.839843-8.667969 0-14.449219-.738281-21.105469-1.457031l-5.222656 14.3125-33.769531-40.308593 51.792968-9.101563-6.148437 16.863281c11.394531.378906 12.398437.429688 14.453125.429688 67.078125 0 121.65625-54.574219 121.65625-121.65625 0-22.167969-5.933594-43.59375-17.222656-62.421875l15.90625-10.917969c13.484375 22.066406 20.574218 47.265625 20.574218 73.339844 0 34.058594-12.371093 66.960937-34.832031 92.648437l11.289063 9.871094c24.851562-28.421875 38.539062-64.828125 38.539062-102.519531 0-31.632813-9.433594-62.101563-27.28125-88.117188zm0 0"/>
<path xmlns="http://www.w3.org/2000/svg" d="m374.078125 398.148438c-34.132813 26.183593-74.960937 40.023437-118.078125 40.023437-107.085938 0-194.207031-87.121094-194.207031-194.207031 0-18.382813 2.546875-36.472656 7.582031-53.90625l22.140625 12.230468-1.992187-104.523437-89.523438 53.976563 25.394531 14.023437c-8.535156 25.125-12.859375 51.398437-12.859375 78.199219 0 64.363281 24.882813 125.050781 70.066406 170.878906l10.679688-10.527344c-42.398438-43.007812-65.746094-99.957031-65.746094-160.351562 0-32.4375 6.070313-57.402344 16.320313-85.136719l-13.867188-7.65625 45.035157-27.152344 1.003906 52.582031-15.269532-8.433593c-4.070312 11.972656-13.964843 37.886719-13.964843 75.796875 0 115.359375 93.851562 209.207031 209.207031 209.207031 43.933594 0 85.667969-13.34375 121.179688-38.664063l11.730468 15.289063c-38.910156 27.917969-84.699218 42.636719-132.910156 42.636719-54.582031 0-107.339844-19.492188-148.558594-54.882813l-9.769531 11.378907c43.933594 37.722656 100.164063 58.5 158.328125 58.5 54.050781 0 105.25-17.359376 148.058594-50.203126l5.949218-4.5625-29.980468-39.078124zm0 0"/>
<path xmlns="http://www.w3.org/2000/svg" d="m256.613281 298.015625-7.5-12.988281 42.214844-24.371094 7.5 12.988281zm46.503907-40.550781h-15v-15h15zm0-24.996094h-15v-15h15zm0 0" fill="#fff"/>
</svg>